<?xml version="1.0" encoding="UTF-8"?><svg id="WEBSITE_ARTBOARD" xmlns="http://www.w3.org/2000/svg" viewBox="0 0 1729.72 877.83"><defs><style>.cls-1{fill:none;stroke:#e44645;stroke-miterlimit:10;stroke-width:4px;}.cls-2{fill:#e44645;}.cls-2,.cls-3,.cls-4{stroke-width:0px;}.cls-3{fill:#e14949;}.cls-4{fill:#e54645;}</style></defs><g id="GRAPHICS_copy"><g id="BUILDING_copy"><path class="cls-2" d="m1377.45,794.97v-38.5h-232.72v38.5h232.72Zm-30.58-30.79h0c14.67,0,26.56,11.89,26.56,26.56h-53.12c0-14.67,11.89-26.56,26.56-26.56Zm-56.89,0h0c14.67,0,26.56,11.89,26.56,26.56h-53.12c0-14.67,11.89-26.56,26.56-26.56Zm-56.89,0h0c14.67,0,26.56,11.89,26.56,26.56h-53.12c0-14.67,11.89-26.56,26.56-26.56Zm-57.46,0h0c14.67,0,26.56,11.89,26.56,26.56h-53.12c0-14.67,11.89-26.56,26.56-26.56Z"/><rect class="cls-2" x="1144.73" y="709.22" width="232.72" height="40.35"/><path class="cls-2" d="m1144.73,801.86v78.02h232.72v-78.02h-232.72Zm57.46,37.66h-53.12v-32.75h53.12v32.75Zm57.46,0h-53.12v-32.75h53.12v32.75Zm56.89,0h-53.12v-32.75h53.12v32.75Zm56.89,0h-53.12v-32.75h53.12v32.75Z"/><rect class="cls-2" x="1144.73" y="687.38" width="116.65" height="44.25"/><rect class="cls-2" x="1144.73" y="670.32" width="14.33" height="17.07"/><rect class="cls-2" x="1247.12" y="670.32" width="14.33" height="17.07"/><rect class="cls-2" x="1144.73" y="673.05" width="116.73" height="4.78"/><rect class="cls-2" x="1171.06" y="677.83" width="1.37" height="9.56"/><rect class="cls-2" x="1183.74" y="677.83" width="1.37" height="9.56"/><rect class="cls-2" x="1196.41" y="677.83" width="1.37" height="9.56"/><rect class="cls-2" x="1209.09" y="677.83" width="1.37" height="9.56"/><rect class="cls-2" x="1221.77" y="677.83" width="1.37" height="9.56"/><rect class="cls-2" x="1234.44" y="677.83" width="1.37" height="9.56"/></g><g id="BUILDING_copy-2"><path class="cls-2" d="m1005.37,538.26v339.42h104.44v-339.42h-104.44Zm16.23,101.13h33.07v81.71h-33.07v-81.71Zm71.98,214.48h-71.98v-81.71h71.98v81.71Zm-71.98-87.06c0-19.88,16.11-35.99,35.99-35.99h0c19.88,0,35.99,16.11,35.99,35.99h-71.98Zm71.98-45.72h-33.07v-81.71h33.07v81.71Zm0-87.06h-71.98v-35.99c0-19.88,16.11-35.99,35.99-35.99h0c19.88,0,35.99,16.11,35.99,35.99v35.99Z"/><g id="PILLARS_copy_4"><polyline class="cls-2" points="1050.11 532.36 1050.11 483.79 1065.06 483.79 1065.06 532.36"/><polyline class="cls-2" points="1027.7 532.36 1027.7 495 1042.64 495 1042.64 532.36"/><polyline class="cls-2" points="1005.28 532.36 1005.28 506.21 1020.22 506.21 1020.22 532.36"/><polyline class="cls-2" points="1087.48 532.36 1087.48 495 1072.53 495 1072.53 532.36"/><polyline class="cls-2" points="1109.9 532.36 1109.9 506.21 1094.95 506.21 1094.95 532.36"/></g></g><g id="BUILDING_copy-3"><polyline class="cls-2" points="959.13 857.5 974.12 878.15 839.57 878.15 854.56 857.5"/><polygon class="cls-2" points="910.6 456.66 910.6 407.56 906.85 380.43 903.09 407.56 903.09 456.66 910.6 456.66"/><path class="cls-2" d="m932.88,375.67c-5.68,10.57-19.95,14.4-30.96,10.17-11.74-4.19-19.94-16.63-18.63-29.08.69-7.71,4.98-15.31,11.76-18.91-3.44,6.44-4.66,12.91-3.9,18.91,2.66,20.14,24.24,28.81,41.73,18.91h0Z"/><polygon class="cls-2" points="839.68 741.31 854.56 761.81 854.56 877.83 959.13 877.83 959.13 761.81 974.01 741.31 839.68 741.31"/><rect class="cls-2" x="839.57" y="718.24" width="134.54" height="11.53"/><path class="cls-2" d="m974.12,706.71v-11.75h-14.99v-192.84c0-28.88-23.41-52.28-52.28-52.28h0c-28.88,0-52.28,23.41-52.28,52.28v192.84h-14.99v11.75h134.54Zm-48.34-201.09c0-5.83,4.72-10.55,10.55-10.55s10.55,4.72,10.55,10.55v177.18h-21.1v-177.18Zm-28.67,0c0-5.83,4.72-10.55,10.55-10.55h0c5.83,0,10.55,4.72,10.55,10.55v177.18h-21.1v-177.18Zm-30.3,0c0-5.83,4.72-10.55,10.55-10.55s10.55,4.72,10.55,10.55v177.18h-21.1v-177.18Z"/></g><g id="BUILDING_copy-4"><rect class="cls-2" x="675.1" y="605.47" width="65.66" height="3.89"/><rect class="cls-2" x="661.48" y="617.14" width="31.13" height="3.89" transform="translate(1296.13 -57.95) rotate(90)"/><rect class="cls-2" x="670.86" y="617.14" width="31.13" height="3.89" transform="translate(1305.51 -67.33) rotate(90)"/><rect class="cls-2" x="680.24" y="617.14" width="31.13" height="3.89" transform="translate(1314.89 -76.71) rotate(90)"/><rect class="cls-2" x="689.62" y="617.14" width="31.13" height="3.89" transform="translate(1324.27 -86.09) rotate(90)"/><rect class="cls-2" x="699" y="617.14" width="31.13" height="3.89" transform="translate(1333.65 -95.47) rotate(90)"/><rect class="cls-2" x="708.38" y="617.14" width="31.13" height="3.89" transform="translate(1343.03 -104.85) rotate(90)"/><rect class="cls-2" x="717.76" y="617.14" width="31.13" height="3.89" transform="translate(1352.41 -114.23) rotate(90)"/><rect class="cls-2" x="740.75" y="571.91" width="7.3" height="7.3"/><rect class="cls-2" x="799.12" y="571.91" width="7.3" height="7.3"/><path class="cls-2" d="m740.75,579.21v55.44h-65.66v98.52h131.32v-153.96h-65.66Zm-55.2,97.08c0-14.1,11.43-25.53,25.53-25.53s25.53,11.43,25.53,25.53v25.53h-51.07v-25.53Zm51.13,42.44h-51.2v-13.65h51.2v13.65Zm8.2-42.44c0-14.1,11.43-25.53,25.53-25.53h0c14.1,0,25.53,11.43,25.53,25.53v25.53h-51.07v-25.53Zm51.13,42.44h-51.2v-13.65h51.2v13.65Z"/><rect class="cls-2" x="675.1" y="746.51" width="131.32" height="13.91"/><rect class="cls-2" x="675.1" y="774.07" width="131.32" height="103.76"/></g><g id="ELECTRIC_TOWERS_copy"><g id="TOWER_copy_6"><polygon class="cls-2" points="87.03 878.51 103.47 878.51 93.8 463.98 87.03 463.98 80.26 463.98 70.59 878.51 87.03 878.51"/><rect class="cls-2" x="21.92" y="571" width="130.23" height="10.31"/><rect class="cls-2" x="21.92" y="761.5" width="130.23" height="10.31"/><rect class="cls-2" y="666.25" width="174.06" height="10.31"/><polygon class="cls-2" points="112.17 580.32 87.03 608.39 61.89 580.32 61.89 577.79 87.03 605.86 112.17 577.79 112.17 580.32"/><polygon class="cls-2" points="112.17 771.15 87.03 799.22 61.89 771.15 61.89 768.62 87.03 796.69 112.17 768.62 112.17 771.15"/><polygon class="cls-2" points="122.27 676.4 87.03 715.75 51.79 676.4 51.79 672.86 87.03 712.21 122.27 672.86 122.27 676.4"/><g id="Layer_98_copy"><rect class="cls-2" x="30.62" y="581.31" width="1.61" height="20.95"/></g></g><g id="TOWER_copy_6-2"><polygon class="cls-2" points="269.97 881.24 298.66 881.24 281.78 157.85 269.97 157.85 258.16 157.85 241.28 881.24 269.97 881.24"/><rect class="cls-2" x="156.34" y="344.6" width="227.26" height="18"/><rect class="cls-2" x="156.34" y="677.05" width="227.26" height="18"/><rect class="cls-2" x="118.09" y="510.83" width="303.76" height="18"/><polygon class="cls-2" points="313.85 360.87 269.97 409.86 226.09 360.87 226.09 356.45 269.97 405.44 313.85 356.45 313.85 360.87"/><polygon class="cls-2" points="313.85 693.88 269.97 742.87 226.09 693.88 226.09 689.46 269.97 738.45 313.85 689.46 313.85 693.88"/><polygon class="cls-2" points="331.47 528.55 269.97 597.21 208.47 528.55 208.47 522.36 269.97 591.03 331.47 522.36 331.47 528.55"/><g id="Layer_98_copy_3"><rect class="cls-2" x="171.53" y="362.6" width="2.81" height="36.56"/></g></g><g id="TOWER_copy_6-3"><polygon class="cls-2" points="508.54 877.83 543.35 877.83 522.88 0 508.54 0 494.21 0 473.73 877.83 508.54 877.83"/><rect class="cls-2" x="370.65" y="226.62" width="275.77" height="21.84"/><rect class="cls-2" x="370.65" y="630.04" width="275.77" height="21.84"/><rect class="cls-2" x="324.24" y="428.33" width="368.61" height="21.84"/><polygon class="cls-2" points="561.78 246.36 508.54 305.81 455.3 246.36 455.3 241.01 508.54 300.46 561.78 241.01 561.78 246.36"/><polygon class="cls-2" points="561.78 650.46 508.54 709.92 455.3 650.46 455.3 645.11 508.54 704.56 561.78 645.11 561.78 650.46"/><polygon class="cls-2" points="583.17 449.84 508.54 533.17 433.91 449.84 433.91 442.33 508.54 525.66 583.17 442.33 583.17 449.84"/></g><g id="WIRES_copy_8"><path class="cls-1" d="m405.97,248.47s21.82,101.32-169.55,112.44"/><path class="cls-1" d="m442.18,248.47s-35.35,134.47-216,112.44"/><path class="cls-1" d="m331.75,528.34s242.32-17.75,264.04-279.87"/><path class="cls-1" d="m508.54,300.46s-133.79,268.02-421.51,296.76"/><path class="cls-1" d="m455.3,650.46s-82.37,148.76-393.41,133.45"/><path class="cls-1" d="m112.17,768.62s235.95,38.79,449.61-118.15"/><path class="cls-1" d="m56.34,677.94s96.36-3.83,169.84-129.62"/><path class="cls-1" d="m122.27,676.4s250.2,29.41,460.9-226.57"/></g></g><g id="WIRES_copy_8-2"><path class="cls-1" d="m1109.81,714.5s13.76,6.46,34.92,2.3"/><path class="cls-1" d="m1148.82,721.51s-17.29,14.33-39.02,12.63"/></g><g id="Layer_97_copy_6"><polygon class="cls-2" points="1477.5 877.83 1491.62 877.83 1483.31 521.82 1477.5 521.82 1471.69 521.82 1463.38 877.83 1477.5 877.83"/><rect class="cls-2" x="1421.58" y="613.73" width="111.84" height="8.86"/><rect class="cls-2" x="1421.58" y="777.34" width="111.84" height="8.86"/><rect class="cls-2" x="1402.75" y="695.53" width="149.49" height="8.86"/><polygon class="cls-2" points="1499.09 621.74 1477.5 645.85 1455.91 621.74 1455.91 619.56 1477.5 643.67 1499.09 619.56 1499.09 621.74"/><polygon class="cls-2" points="1499.09 785.62 1477.5 809.73 1455.91 785.62 1455.91 783.45 1477.5 807.56 1499.09 783.45 1499.09 785.62"/><polygon class="cls-2" points="1507.77 704.26 1477.5 738.05 1447.23 704.26 1447.23 701.21 1477.5 735 1507.77 701.21 1507.77 704.26"/></g><g id="CAR_copy"><circle id="TIRE-3" class="cls-3" cx="643.87" cy="871.64" r="6.64"/><circle id="TIRE-4" class="cls-3" cx="592.29" cy="871.69" r="6.64"/><path class="cls-3" d="m578.62,873.13s2.97,1.31,5.5,1.31h.62c-.31-.86-.49-1.79-.49-2.75,0-4.44,3.6-8.04,8.04-8.04,4.44,0,8.04,3.6,8.04,8.04,0,.91-.16,1.79-.44,2.6l35.9-.33.38-.03c-.22-.73-.34-1.49-.34-2.29,0-4.44,3.6-8.04,8.04-8.04,4.44,0,8.04,3.6,8.04,8.04,0,.42-.04.82-.1,1.22l.58-.04,1.85-.87c1.48-.7,2.43-2.2,2.43-3.84v-3.85s-16.99-16.81-35.07-16.81-27.25,10.39-27.25,10.39c0,0-11.79,1.48-16.68,9.08,0,0-.79,3.23.96,6.2Zm47.34-22.86c8.92,2.02,13.71,7.57,13.71,7.57h-13.71s0-7.57,0-7.57Zm-25.37,7.57c2.4-2.63,8.76-8.3,18.82-8.3,1.06,0,2.08.05,3.06.15v8.14s-21.88,0-21.88,0Z"/></g><g id="BUS_copy"><path class="cls-4" d="m1719.13,862.18c.49,1.47.77,3.04.77,4.68,0,.45-.03.9-.07,1.34h2.97v-6.02h-3.67Z"/><path class="cls-4" d="m1577.18,866.87c0-1.64.28-3.21.77-4.68h-32.66v6.02h5.89l.62.62h14.22l.92.92h10.53c-.19-.93-.29-1.9-.29-2.88Z"/><g id="TIRE_copy"><path class="cls-4" d="m1591.9,855.27c-6.4,0-11.6,5.19-11.6,11.6s5.19,11.6,11.6,11.6,11.6-5.19,11.6-11.6-5.19-11.6-11.6-11.6Zm0,18.96c-4.06,0-7.36-3.29-7.36-7.36s3.29-7.36,7.36-7.36,7.36,3.29,7.36,7.36-3.29,7.36-7.36,7.36Z"/><path class="cls-4" d="m1591.9,860.51c-3.51,0-6.36,2.85-6.36,6.36s2.85,6.36,6.36,6.36,6.36-2.85,6.36-6.36-2.85-6.36-6.36-6.36Zm1.73,3.67c.26-.26.69-.26.95,0s.26.69,0,.95c-.26.26-.69.26-.95,0-.26-.26-.26-.68,0-.95Zm-1.73-1.11c.37,0,.67.3.67.67s-.3.67-.67.67-.67-.3-.67-.67.3-.67.67-.67Zm-3.79,3.79c0-.37.3-.67.67-.67s.67.3.67.67-.3.67-.67.67-.67-.3-.67-.67Zm2.06,2.68c-.26.26-.69.26-.95,0s-.26-.69,0-.95.68-.26.95,0c.26.26.26.69,0,.95Zm0-4.42c-.26.26-.69.26-.95,0-.26-.26-.26-.68,0-.95s.68-.26.95,0c.26.26.26.69,0,.95Zm1.73,5.53c-.37,0-.67-.3-.67-.67s.3-.67.67-.67.67.3.67.67-.3.67-.67.67Zm0-2.45c-.74,0-1.34-.6-1.34-1.34s.6-1.34,1.34-1.34,1.34.6,1.34,1.34-.6,1.34-1.34,1.34Zm2.68,1.34c-.26.26-.69.26-.95,0s-.26-.69,0-.95.69-.26.95,0,.26.69,0,.95Zm.44-2.01c-.37,0-.67-.3-.67-.67s.3-.67.67-.67.67.3.67.67-.3.67-.67.67Z"/></g><g id="TIRE_copy-2"><path class="cls-4" d="m1705.19,855.27c-6.4,0-11.6,5.19-11.6,11.6s5.19,11.6,11.6,11.6,11.6-5.19,11.6-11.6-5.19-11.6-11.6-11.6Zm0,18.96c-4.06,0-7.36-3.29-7.36-7.36s3.29-7.36,7.36-7.36,7.36,3.29,7.36,7.36-3.29,7.36-7.36,7.36Z"/><path class="cls-4" d="m1705.19,860.51c-3.51,0-6.36,2.85-6.36,6.36s2.85,6.36,6.36,6.36,6.36-2.85,6.36-6.36-2.85-6.36-6.36-6.36Zm1.73,3.67c.26-.26.68-.26.95,0,.26.26.26.69,0,.95-.26.26-.69.26-.95,0-.26-.26-.26-.68,0-.95Zm-1.73-1.11c.37,0,.67.3.67.67s-.3.67-.67.67-.67-.3-.67-.67.3-.67.67-.67Zm-3.79,3.79c0-.37.3-.67.67-.67s.67.3.67.67-.3.67-.67.67-.67-.3-.67-.67Zm2.06,2.68c-.26.26-.68.26-.95,0-.26-.26-.26-.69,0-.95.26-.26.68-.26.95,0s.26.69,0,.95Zm0-4.42c-.26.26-.68.26-.95,0-.26-.26-.26-.68,0-.95.26-.26.68-.26.95,0s.26.69,0,.95Zm1.73,5.53c-.37,0-.67-.3-.67-.67s.3-.67.67-.67.67.3.67.67-.3.67-.67.67Zm0-2.45c-.74,0-1.34-.6-1.34-1.34s.6-1.34,1.34-1.34,1.34.6,1.34,1.34-.6,1.34-1.34,1.34Zm2.68,1.34c-.26.26-.69.26-.95,0s-.26-.69,0-.95.68-.26.95,0c.26.26.26.69,0,.95Zm.44-2.01c-.37,0-.67-.3-.67-.67s.3-.67.67-.67.67.3.67.67-.3.67-.67.67Z"/></g><polygon class="cls-4" points="1559.57 823.49 1548.67 823.49 1546.3 839.88 1559.57 839.88 1559.57 823.49"/><rect class="cls-4" x="1594.58" y="823.49" width="2.06" height="16.39"/><rect class="cls-4" x="1576.04" y="823.49" width="2.06" height="16.39"/><rect class="cls-4" x="1613.12" y="823.49" width="2.06" height="16.39"/><rect class="cls-4" x="1650.19" y="823.49" width="2.06" height="16.39"/><rect class="cls-4" x="1631.65" y="823.49" width="2.06" height="16.39"/><path class="cls-4" d="m1678.66,869.88h-7.68v-7.69h-65.13c.49,1.47.77,3.04.77,4.68,0,.99-.1,1.95-.29,2.88h56.93l2.8,2.8h25.55c-.73-1.75-1.14-3.67-1.14-5.68,0-1.64.28-3.21.77-4.68h-3.78v7.69h-7.68v-24.2h7.68v15.28h4.25c2.28-5.18,7.45-8.81,13.47-8.81s11.2,3.62,13.47,8.81h2.47v-12.68l-23.19-9.19h-3.79l-2.45-22.1-2.68-1.75h-139.15l-.84,5.8h138.43v21.3h-7.68v-18.84h-1.12v18.84h-7.68v-18.84h-2.14v18.84h-122.54v6.02h122.54v2.45h-122.54v10.15h32.13c2.28-5.18,7.45-8.81,13.47-8.81s11.2,3.62,13.47,8.81h65.6v-15.28h7.68v24.2Zm-124.56-50.62c-.49,0-.89-.4-.89-.89s.4-.89.89-.89.89.4.89.89-.4.89-.89.89Zm-1.12,35.9c-.49,0-.89-.4-.89-.89s.4-.89.89-.89.89.4.89.89-.4.89-.89.89Z"/><polygon class="cls-4" points="1575.18 870.37 1577.18 870.37 1576.63 876.12 1575.18 876.94 1575.18 870.37"/><polygon class="cls-4" points="1692.3 817.47 1696.38 817.47 1696.38 818.28 1692.71 821.21 1692.3 817.47"/><polygon class="cls-4" points="1548.97 817.25 1544.74 817.25 1544.74 818.05 1548.4 820.99 1548.97 817.25"/><path class="cls-4" d="m1721.02,848.29l-.67-.02c.01-.54.36-1.57,1.58-1.57h5.4c.6,0,1.04-.16,1.33-.48.46-.51.39-1.28.39-1.29v-.03s0-4.41,0-4.41h.67v4.39c.01.15.06,1.09-.56,1.78-.42.47-1.04.7-1.83.7h-5.4c-.83,0-.9.77-.91.92Z"/><rect class="cls-4" x="1727.15" y="839.55" width="2.01" height="5.13"/><path class="cls-4" d="m1698.25,838.43h-5.46v-.67h5.46c1.87,0,2.02-1.52,2.03-1.77l-1.11-10.72s-.03-2.99-1.86-2.99h-5.06v-.67h5.06c1.99,0,2.52,2.37,2.53,3.64l1.12,10.71v.02s-.08,2.45-2.7,2.45Z"/><path class="cls-4" d="m1699.5,825.28s-.33-1.45-2.34-1.45l1.17,12.78s1.73.02,2.29-1.81l-1.12-9.52Z"/></g><g id="WIRES_copy_8-3"><path class="cls-1" d="m1455.91,621.74s-44.96,62.92-201.62,60.87"/><path class="cls-1" d="m1496.38,622.59s-9.09,126.89-118.94,141.92"/><path class="cls-1" d="m1504.91,704.39s-50.38,47.33-127.47,42.12"/><path class="cls-1" d="m1456.77,785.62s5.85,56.77,61.81,92.21"/></g></g></svg>