<?xml version="1.0" encoding="utf-8"?>
<!-- Generator: Adobe Illustrator 28.0.0, SVG Export Plug-In . SVG Version: 6.00 Build 0)  -->
<svg version="1.1" id="LOGO_ARTBOARD" xmlns="http://www.w3.org/2000/svg" xmlns:xlink="http://www.w3.org/1999/xlink" x="0px"
	 y="0px" viewBox="0 0 1677.3 801.4" style="enable-background:new 0 0 1677.3 801.4;" xml:space="preserve">
<style type="text/css">
	.st0{fill:#FFFFFF;}
</style>
<path class="st0" d="M1120.5,685.5c-72.4,71.7-172,115.9-281.9,115.9s-209.5-44.2-281.9-115.9H1120.5L1120.5,685.5z M1677.3,600.5
	l-438-199.8l0,0c0,28.7-3,56.8-8.8,83.8H446.7c-5.8-27-8.8-55-8.8-83.8L0,600.5h407.3h862l0,0H1677.3L1677.3,600.5z M545.1,253.9
	H629v146.5h41.9V191h83.9v209.4h41.9V128.1h83.9v272.3h41.9V191h83.9v209.4h41.9V253.9h83.9v146.5h107.2
	C1239.2,179.3,1059.8,0,838.6,0S438.1,179.3,437.9,400.5h107.2V253.9L545.1,253.9z"/>
</svg>
