<?xml version="1.0" encoding="UTF-8"?><svg id="LOGO_ARTBOARD" xmlns="http://www.w3.org/2000/svg" viewBox="0 0 1677.28 1534.32"><defs><style>.cls-1{fill:#e44645;}.cls-1,.cls-2{stroke-width:0px;}.cls-2{fill:#6d3235;}</style></defs><g id="WHITE"><g id="Layer_243"><path class="cls-2" d="m443.22,1534.32v-206.73h88.6v26.58h-59.07v57.59h44.3v26.58h-44.3v69.4h59.07v26.58h-88.6Zm191.67,0l-48.14-136.15-.89-3.84v139.99h-28.35v-206.73h31.9l42.23,122.56.89,4.13v-126.7h28.35v206.73h-25.99Zm127.88.59h-41.35c-18.31,0-31.01-12.7-31.01-31.01v-145.89c0-18.31,12.7-31.01,31.01-31.01h41.35c18.31,0,31.01,12.7,31.01,31.01v28.65h-29.53v-31.01c0-.89-.59-1.48-1.48-1.48h-41.35c-.89,0-1.48.59-1.48,1.48v150.62c0,.89.59,1.48,1.48,1.48h41.35c.89,0,1.48-.59,1.48-1.48v-54.64h-22.15v-26.58h51.68v78.85c0,18.31-12.7,31.01-31.01,31.01Zm60.54-.59v-206.73h29.53v206.73h-29.53Zm136.44,0l-48.14-136.15-.89-3.84v139.99h-28.35v-206.73h31.9l42.23,122.56.89,4.13v-126.7h28.35v206.73h-25.99Zm55.52,0v-206.73h88.6v26.58h-59.07v57.59h44.3v26.58h-44.3v69.4h59.07v26.58h-88.6Zm114.29,0v-206.73h88.6v26.58h-59.07v57.59h44.3v26.58h-44.3v69.4h59.07v26.58h-88.6Zm189.31,0l-22.15-84.17h-23.33v84.17h-29.53v-206.73h72.36c18.31,0,31.01,12.7,31.01,31.01v60.54c0,15.65-8.86,26.88-23.04,30.12l25.99,85.06h-31.31Zm-45.48-110.75h42.82c.89,0,1.48-.59,1.48-1.48v-66.45c0-.89-.59-1.48-1.48-1.48h-42.82v69.4Zm103.37,110.75v-206.73h29.53v206.73h-29.53Zm136.44,0l-48.14-136.15-.89-3.84v139.99h-28.35v-206.73h31.9l42.23,122.56.89,4.13v-126.7h28.35v206.73h-25.99Zm127.88.59h-41.35c-18.31,0-31.01-12.7-31.01-31.01v-145.89c0-18.31,12.7-31.01,31.01-31.01h41.35c18.31,0,31.01,12.7,31.01,31.01v28.65h-29.53v-31.01c0-.89-.59-1.48-1.48-1.48h-41.35c-.89,0-1.48.59-1.48,1.48v150.62c0,.89.59,1.48,1.48,1.48h41.35c.89,0,1.48-.59,1.48-1.48v-54.64h-22.15v-26.58h51.68v78.85c0,18.31-12.7,31.01-31.01,31.01Z"/><path class="cls-1" d="m40.61,1361.19v49.03h44.3v32.49h-44.3v91.26H3.69v-206.73h95.98v33.96h-59.07Zm157.41,173.36h-48.43c-18.31,0-31.01-12.7-31.01-31.31v-145.6c0-18.31,12.7-31.01,31.01-31.01h48.43c18.61,0,31.31,12.7,31.31,31.01v145.6c0,18.61-12.7,31.31-31.31,31.31Zm-6.79-173.36h-34.55c-.89,0-1.18.3-1.18,1.18v136.44c0,.59.29,1.18,1.18,1.18h34.55c.59,0,1.18-.59,1.18-1.18v-136.44c0-.89-.59-1.18-1.18-1.18Zm139.4,172.77l-20.97-80.63h-17.13v80.63h-36.92v-206.73h79.44c18.61,0,31.31,12.7,31.31,31.01v64.09c0,15.06-8.27,26.29-21.85,29.83l24.81,81.81h-38.69Zm-38.1-114.59h35.74c.59,0,1.18-.29,1.18-1.18v-55.82c0-.89-.59-1.18-1.18-1.18h-35.74v58.18Z"/><path class="cls-2" d="m149.61,1213.19h-63.7l-7.13,38.03H4.62l71.31-332.76h83.67l71.31,332.76h-74.16l-7.13-38.03Zm-10.93-61.8l-19.49-106.01-1.43-11.88-1.43,11.88-19.49,106.01h41.83Zm110.76,99.83v-332.76h71.31v266.21h95.07v66.55h-166.38Zm155.45-134.53v-64.17h121.7v64.17h-121.7Zm281.41,135.48h-89.37c-29.95,0-50.39-20.44-50.39-50.39v-233.88c0-29.95,20.44-50.39,50.39-50.39h89.37c29.95,0,50.39,20.44,50.39,50.39v57.52h-71.31v-38.98c0-.95-.47-1.43-1.43-1.43h-44.69c-.95,0-1.43.47-1.43,1.43v196.8c0,.95.47,1.43,1.43,1.43h44.69c.95,0,1.43-.48,1.43-1.43v-55.62h-29.95v-66.55h101.25v140.71c0,29.95-20.44,50.39-50.39,50.39Zm213.92-38.98h-63.7l-7.13,38.03h-74.16l71.31-332.76h83.66l71.31,332.76h-74.16l-7.13-38.03Zm-10.93-61.8l-19.49-106.01-1.43-11.88-1.43,11.88-19.49,106.01h41.83Zm288.07,99.83v-164l-1.43,8.56-39.46,155.45h-27.1l-38.98-155.45-1.43-8.56v164h-68.93v-332.76h82.24l40.88,164.96,40.88-164.96h82.24v332.76h-68.93Zm232.45-38.03h-63.7l-7.13,38.03h-74.16l71.31-332.76h83.66l71.31,332.76h-74.16l-7.13-38.03Zm-10.93-61.8l-19.49-106.01-1.43-11.88-1.43,11.88-19.49,106.01h41.83Zm110.75,99.83v-332.76h71.31v266.21h95.07v66.55h-166.38Z"/><path class="cls-1" d="m1120.49,685.46c-72.39,71.65-171.95,115.9-281.86,115.9s-209.46-44.25-281.86-115.9h563.71Zm556.78-85l-437.96-199.78h0c0,28.74-3.04,56.76-8.79,83.78H446.74c-5.75-27.02-8.79-55.04-8.79-83.78L0,600.46h407.28s862,0,862,0h0s408,0,408,0ZM545.12,253.92h83.86v146.54h41.93v-209.44h83.86v209.44h41.93V128.13h83.86v272.34h41.93v-209.44h83.86v209.44h41.93v-146.54h83.86v146.54h107.16c-.12-221.19-179.46-400.46-400.68-400.46s-400.56,179.27-400.68,400.46h107.16v-146.54Z"/></g></g></svg>